<svg xmlns="http://www.w3.org/2000/svg" width="1em" height="1em" viewBox="0 0 24 24">
	<rect width="24" height="24" fill="none" />
	<g fill="currentColor" fill-opacity="0">
		<path d="M15.22 6.03l2.53 -1.94l-3.19 -0.09l-1.06 -3l-1.06 3l-3.19 0.09l2.53 1.94l-0.91 3.06l2.63 -1.81l2.63 1.81l-0.91 -3.06Z">
			<animate id="lineMdMoonLoop0" fill="freeze" attributeName="fill-opacity" begin="0.7s" dur="0.4s" values="0;1" />
			<animate fill="freeze" attributeName="fill-opacity" begin="lineMdMoonLoop0.begin+2.2s" dur="0.4s" values="1;0" />
		</path>
		<path d="M13.61 5.25L15.25 4l-2.06-.05L12.5 2l-.69 1.95L9.75 4l1.64 1.25l-.59 1.98l1.7-1.17l1.7 1.17z">
			<animate fill="freeze" attributeName="fill-opacity" begin="lineMdMoonLoop0.begin+3s" dur="0.4s" values="0;1" />
			<animate fill="freeze" attributeName="fill-opacity" begin="lineMdMoonLoop0.begin+5.2s" dur="0.4s" values="1;0" />
		</path>
		<path d="M19.61 12.25L21.25 11l-2.06-.05L18.5 9l-.69 1.95l-2.06.05l1.64 1.25l-.59 1.98l1.7-1.17l1.7 1.17z">
			<animate fill="freeze" attributeName="fill-opacity" begin="lineMdMoonLoop0.begin+0.4s" dur="0.4s" values="0;1" />
			<animate fill="freeze" attributeName="fill-opacity" begin="lineMdMoonLoop0.begin+2.8s" dur="0.4s" values="1;0" />
		</path>
		<path d="M20.828 9.731l1.876-1.439l-2.366-.067L19.552 6l-.786 2.225l-2.366.067l1.876 1.439L17.601 12l1.951-1.342L21.503 12z">
			<animate fill="freeze" attributeName="fill-opacity" begin="lineMdMoonLoop0.begin+3.4s" dur="0.4s" values="0;1" />
			<animate fill="freeze" attributeName="fill-opacity" begin="lineMdMoonLoop0.begin+5.6s" dur="0.4s" values="1;0" />
		</path>
	</g>
	<path fill="currentColor" fill-opacity="0" stroke="currentColor" stroke-dasharray="56" stroke-dashoffset="56" stroke-linecap="round" stroke-linejoin="round" stroke-width="2" d="M7 6c0 6.08 4.92 11 11 11c0.53 0 1.05 -0.04 1.56 -0.11c-1.61 2.47 -4.39 4.11 -7.56 4.11c-4.97 0 -9 -4.03 -9 -9c0 -3.17 1.64 -5.95 4.11 -7.56c-0.07 0.51 -0.11 1.03 -0.11 1.56Z">
		<animate fill="freeze" attributeName="fill-opacity" begin="1.5s" dur="0.15s" values="0;0.3" />
		<animate fill="freeze" attributeName="stroke-dashoffset" dur="0.6s" values="56;0" />
	</path>
</svg>
